<?xml version="1.0" standalone="no"?>
<!DOCTYPE svg PUBLIC "-//W3C//DTD SVG 20010904//EN"
 "http://www.w3.org/TR/2001/REC-SVG-20010904/DTD/svg10.dtd">
<svg version="1.0" xmlns="http://www.w3.org/2000/svg"
 width="658.000000pt" height="658.000000pt" viewBox="0 0 658.000000 658.000000"
 preserveAspectRatio="xMidYMid meet">
<metadata>
Created by potrace 1.14, written by Peter Selinger 2001-2017
</metadata>
<g transform="translate(0.000000,658.000000) scale(0.100000,-0.100000)"
fill="#000000" stroke="none">
<path d="M2567 5044 c-1 -1 -56 -4 -122 -8 -142 -7 -158 -10 -294 -42 -182
-43 -396 -139 -522 -233 -63 -48 -189 -166 -239 -226 -46 -55 -117 -150 -134
-180 -9 -16 -30 -50 -46 -75 -17 -25 -36 -56 -43 -70 -15 -30 -44 -77 -152
-240 -46 -69 -97 -156 -115 -195 -40 -86 -104 -279 -121 -361 -12 -58 -11 -64
15 -129 21 -52 28 -89 31 -164 12 -274 159 -589 403 -867 23 -27 38 -50 32
-52 -41 -14 41 -125 175 -237 32 -27 71 -61 85 -74 60 -56 337 -255 398 -286
133 -66 222 -88 513 -129 43 -6 277 -20 334 -20 43 0 177 14 185 19 3 2 34 6
70 10 36 4 74 9 85 11 21 5 265 5 350 0 84 -4 156 20 269 93 38 24 76 51 85
60 10 9 44 39 76 66 32 28 70 62 84 76 80 80 157 166 235 261 72 89 100 134
162 263 41 86 97 186 124 222 47 63 67 102 35 70 -35 -35 -90 -61 -129 -60
-32 1 -45 7 -65 32 -14 17 -29 31 -33 31 -10 0 -104 -98 -129 -135 -12 -16
-38 -43 -57 -58 -20 -16 -55 -45 -77 -66 -31 -29 -45 -36 -65 -31 -37 9 -46
60 -32 178 18 153 22 174 43 230 23 64 28 98 34 220 5 98 9 114 28 110 11 -2
32 2 107 17 14 3 61 13 104 21 123 24 310 80 383 116 37 18 96 54 131 81 38
29 59 41 53 29 -10 -19 -8 -172 3 -208 3 -11 7 -32 10 -48 21 -121 98 -257
168 -295 24 -13 57 -36 73 -52 32 -29 76 -47 190 -73 172 -40 206 -43 421 -34
102 5 133 20 225 112 35 36 17 88 -58 167 l-44 46 -72 1 c-104 1 -311 12 -339
18 -13 2 -45 7 -72 10 -27 3 -60 10 -73 15 -13 5 -23 7 -23 5 0 -2 -19 2 -42
8 -34 10 -47 20 -61 48 -25 51 -28 78 -12 102 8 11 15 29 15 39 0 19 130 155
185 194 44 30 104 63 116 63 6 0 26 13 45 29 53 47 112 77 219 111 55 18 119
39 143 48 46 16 96 62 125 114 36 68 12 152 -51 172 -12 4 -22 15 -22 25 0 10
-15 24 -40 35 -25 11 -38 22 -34 29 4 7 3 9 -1 4 -5 -4 -18 -1 -29 6 -12 8
-30 12 -41 10 -11 -3 -32 -5 -46 -6 -14 -1 -33 -8 -42 -15 -18 -15 -112 -66
-196 -106 -30 -15 -94 -51 -141 -81 -48 -30 -94 -55 -102 -55 -8 0 -24 -8 -35
-18 -11 -9 -44 -35 -73 -57 -75 -58 -129 -113 -218 -225 l-20 -25 1 28 c1 15
4 27 7 27 14 0 -3 145 -25 224 -13 43 -63 154 -75 166 -3 3 -12 18 -20 34 -20
40 -89 82 -180 110 -66 21 -91 24 -215 21 -138 -2 -161 -7 -242 -47 -13 -6
-24 -9 -26 -7 -2 2 -19 47 -37 99 -112 318 -443 653 -819 827 -145 68 -407
134 -481 123 -19 -3 -70 -3 -113 0 -43 3 -79 5 -80 4z m572 -929 c67 -13 217
-66 271 -97 98 -55 127 -84 151 -149 12 -32 46 -96 76 -142 30 -45 68 -107 83
-137 l28 -55 -44 -76 c-32 -53 -46 -91 -51 -130 -3 -30 -10 -59 -15 -66 -6 -8
-6 -25 2 -48 7 -20 13 -42 14 -48 1 -7 10 -24 20 -39 22 -34 20 -117 -7 -208
-11 -36 -20 -83 -21 -106 -2 -22 -6 -46 -10 -52 -4 -6 12 -46 34 -88 22 -42
39 -78 38 -79 -2 -2 -23 -5 -48 -8 -58 -7 -102 -24 -117 -44 -8 -10 -13 -12
-13 -5 0 9 -8 8 -30 -3 -41 -21 -43 -20 -37 20 6 37 0 43 -22 23 -11 -11 -13
-10 -8 4 3 10 2 20 -4 23 -5 4 -7 11 -4 16 8 12 -5 11 -68 -5 -96 -25 -193 -4
-255 54 -12 11 -26 19 -30 16 -5 -3 -29 -8 -55 -11 -57 -8 -110 8 -135 40 -17
21 -26 24 -82 22 -54 -2 -69 1 -104 24 -52 33 -98 76 -121 112 -17 26 -19 27
-36 11 -18 -16 -20 -15 -34 19 -19 47 -19 50 5 44 16 -4 20 0 20 22 0 28 -18
91 -29 102 -3 4 -30 4 -59 0 -29 -4 -54 -6 -56 -4 -2 3 7 31 20 63 32 78 31
96 -6 115 -16 8 -32 15 -35 15 -3 0 -27 11 -54 24 -68 35 -123 104 -135 170
-4 22 0 30 22 39 l27 12 -1 108 c-2 171 30 270 115 356 48 48 116 86 173 96
18 3 58 12 88 20 30 7 89 18 130 24 41 6 86 13 100 15 34 6 267 -1 309 -9z
m1346 -469 c59 -19 90 -40 80 -55 -9 -16 -74 -47 -115 -56 -19 -4 -60 -18 -91
-31 -31 -13 -78 -26 -105 -30 -27 -3 -66 -12 -86 -19 -33 -11 -39 -10 -52 4
-14 16 -13 24 11 84 24 60 31 69 72 89 25 12 57 24 71 26 13 2 26 5 29 7 9 9
140 -4 186 -19z m-1915 -918 c0 -6 -10 -8 -22 -4 -13 3 -29 6 -36 6 -7 0 -11
4 -8 8 7 12 66 2 66 -10z"/>
<path d="M2789 2911 c-24 -19 -24 -20 -4 -38 11 -10 39 -26 62 -35 l42 -16 10
29 c9 26 7 30 -20 44 -16 9 -29 11 -29 5 0 -5 -4 -10 -10 -10 -5 0 -10 9 -10
20 0 25 -11 25 -41 1z"/>
<path d="M3346 2784 c-42 -42 -75 -82 -73 -89 8 -18 63 -26 95 -13 43 19 111
67 121 87 8 14 3 25 -28 55 l-37 36 -78 -76z"/>
</g>
</svg>
